<?xml version="1.0" encoding="UTF-8" standalone="no"?>
<!DOCTYPE svg PUBLIC "-//W3C//DTD SVG 1.1//EN" "http://www.w3.org/Graphics/SVG/1.1/DTD/svg11.dtd">
<svg width="100%" height="100%" viewBox="0 0 139 139" version="1.1" xmlns="http://www.w3.org/2000/svg" xmlns:xlink="http://www.w3.org/1999/xlink" xml:space="preserve" xmlns:serif="http://www.serif.com/" style="fill-rule:evenodd;clip-rule:evenodd;stroke-linejoin:round;stroke-miterlimit:2;">
    <g transform="matrix(1,0,0,1,-1040.83,-1716.97)">
        <g transform="matrix(2.30477,0,0,2.30477,1040.83,1716.97)">
            <circle cx="30" cy="30" r="30" style="fill:#ff3d00;"/>
        </g>
        <g transform="matrix(2.30477,0,0,2.30477,1040.83,1716.97)">
            <path d="M44.871,41.163c-0.401,0 -0.792,-0.129 -1.114,-0.37l-14.106,-10.53l-14.105,10.53c-0.198,0.148 -0.423,0.255 -0.662,0.315c-0.239,0.06 -0.487,0.072 -0.731,0.035c-0.243,-0.036 -0.477,-0.122 -0.688,-0.25c-0.211,-0.129 -0.395,-0.298 -0.541,-0.498c-0.147,-0.201 -0.253,-0.428 -0.312,-0.67c-0.06,-0.242 -0.071,-0.493 -0.035,-0.739c0.074,-0.498 0.34,-0.946 0.74,-1.245l15.22,-11.373c0.322,-0.242 0.713,-0.372 1.114,-0.372c0.402,-0 0.792,0.13 1.115,0.372l15.22,11.373c0.317,0.237 0.553,0.57 0.673,0.95c0.12,0.381 0.118,0.79 -0.006,1.169c-0.123,0.38 -0.362,0.71 -0.682,0.944c-0.32,0.234 -0.705,0.359 -1.1,0.359Z" style="fill:#fff;fill-rule:nonzero;"/>
        </g>
        <g transform="matrix(2.30477,0,0,2.30477,1040.83,1716.97)">
            <path d="M44.871,31.211c-0.401,0.001 -0.792,-0.129 -1.115,-0.37l-14.105,-10.53l-14.105,10.53c-0.4,0.299 -0.901,0.425 -1.393,0.351c-0.492,-0.075 -0.934,-0.344 -1.23,-0.749c-0.295,-0.405 -0.42,-0.912 -0.346,-1.409c0.074,-0.498 0.34,-0.946 0.74,-1.245l15.22,-11.373c0.322,-0.242 0.713,-0.372 1.114,-0.372c0.401,-0 0.792,0.13 1.115,0.372l15.22,11.373c0.317,0.237 0.553,0.57 0.673,0.951c0.12,0.38 0.118,0.789 -0.006,1.169c-0.123,0.379 -0.362,0.709 -0.682,0.943c-0.32,0.234 -0.705,0.36 -1.1,0.359Z" style="fill:#fff;fill-rule:nonzero;"/>
        </g>
        <g transform="matrix(2.30477,0,0,2.30477,1040.83,1716.97)">
            <circle cx="30" cy="30" r="30" style="fill:#ff3d00;"/>
        </g>
        <g transform="matrix(2.30477,0,0,2.30477,1040.83,1716.97)">
            <path d="M44.871,41.163c-0.401,0 -0.792,-0.129 -1.114,-0.37l-14.106,-10.53l-14.105,10.53c-0.198,0.148 -0.423,0.255 -0.662,0.315c-0.239,0.06 -0.487,0.072 -0.731,0.035c-0.243,-0.036 -0.477,-0.122 -0.688,-0.25c-0.211,-0.129 -0.395,-0.298 -0.541,-0.498c-0.147,-0.201 -0.253,-0.428 -0.312,-0.67c-0.06,-0.242 -0.071,-0.493 -0.035,-0.739c0.074,-0.498 0.34,-0.946 0.74,-1.245l15.22,-11.373c0.322,-0.242 0.713,-0.372 1.114,-0.372c0.402,-0 0.792,0.13 1.115,0.372l15.22,11.373c0.317,0.237 0.553,0.57 0.673,0.95c0.12,0.381 0.118,0.79 -0.006,1.169c-0.123,0.38 -0.362,0.71 -0.682,0.944c-0.32,0.234 -0.705,0.359 -1.1,0.359Z" style="fill:#fff;fill-rule:nonzero;"/>
        </g>
        <g transform="matrix(2.30477,0,0,2.30477,1040.83,1716.97)">
            <path d="M44.871,31.211c-0.401,0.001 -0.792,-0.129 -1.115,-0.37l-14.105,-10.53l-14.105,10.53c-0.4,0.299 -0.901,0.425 -1.393,0.351c-0.492,-0.075 -0.934,-0.344 -1.23,-0.749c-0.295,-0.405 -0.42,-0.912 -0.346,-1.409c0.074,-0.498 0.34,-0.946 0.74,-1.245l15.22,-11.373c0.322,-0.242 0.713,-0.372 1.114,-0.372c0.401,-0 0.792,0.13 1.115,0.372l15.22,11.373c0.317,0.237 0.553,0.57 0.673,0.951c0.12,0.38 0.118,0.789 -0.006,1.169c-0.123,0.379 -0.362,0.709 -0.682,0.943c-0.32,0.234 -0.705,0.36 -1.1,0.359Z" style="fill:#fff;fill-rule:nonzero;"/>
        </g>
    </g>
</svg>
