<?xml version="1.0" encoding="UTF-8" standalone="no"?>
<!DOCTYPE svg PUBLIC "-//W3C//DTD SVG 1.1//EN" "http://www.w3.org/Graphics/SVG/1.1/DTD/svg11.dtd">
<svg width="100%" height="100%" viewBox="0 0 21 15" version="1.1" xmlns="http://www.w3.org/2000/svg" xmlns:xlink="http://www.w3.org/1999/xlink" xml:space="preserve" xmlns:serif="http://www.serif.com/" style="fill-rule:evenodd;clip-rule:evenodd;stroke-linejoin:round;stroke-miterlimit:2;">
    <g transform="matrix(1,0,0,1,-1118.23,-1736.1)">
        <g transform="matrix(1,0,0,1,1118.23,1735.85)">
            <path d="M10,9.006c-0.235,0.001 -0.463,-0.074 -0.652,-0.213l-8.903,-6.57c-0.116,-0.086 -0.214,-0.193 -0.288,-0.317c-0.074,-0.123 -0.123,-0.26 -0.145,-0.402c-0.043,-0.287 0.03,-0.58 0.203,-0.814c0.173,-0.234 0.431,-0.389 0.719,-0.433c0.288,-0.043 0.581,0.03 0.815,0.203l8.251,6.082l8.251,-6.082c0.116,-0.086 0.248,-0.147 0.387,-0.182c0.14,-0.035 0.285,-0.042 0.428,-0.021c0.142,0.022 0.279,0.071 0.402,0.145c0.124,0.074 0.232,0.172 0.317,0.288c0.086,0.116 0.148,0.247 0.183,0.387c0.034,0.14 0.041,0.285 0.02,0.427c-0.021,0.142 -0.071,0.279 -0.145,0.402c-0.074,0.124 -0.172,0.231 -0.288,0.317l-8.903,6.57c-0.189,0.139 -0.417,0.214 -0.652,0.213Z" style="fill:#7ae229;fill-rule:nonzero;"/>
        </g>
        <g transform="matrix(1,0,0,1,1118.23,1735.85)">
            <path d="M10,14.755c-0.235,0 -0.463,-0.075 -0.652,-0.214l-8.903,-6.57c-0.234,-0.172 -0.39,-0.431 -0.433,-0.718c-0.043,-0.288 0.03,-0.581 0.203,-0.815c0.173,-0.233 0.431,-0.389 0.719,-0.432c0.288,-0.043 0.581,0.03 0.815,0.203l8.251,6.082l8.251,-6.082c0.234,-0.173 0.527,-0.246 0.815,-0.203c0.288,0.043 0.546,0.199 0.719,0.432c0.173,0.234 0.246,0.527 0.203,0.815c-0.043,0.287 -0.199,0.546 -0.433,0.718l-8.903,6.57c-0.189,0.139 -0.417,0.214 -0.652,0.214Z" style="fill:#7ae229;fill-rule:nonzero;"/>
        </g>
    </g>
</svg>
