<?xml version="1.0" encoding="UTF-8" standalone="no"?>
<!DOCTYPE svg PUBLIC "-//W3C//DTD SVG 1.1//EN" "http://www.w3.org/Graphics/SVG/1.1/DTD/svg11.dtd">
<svg width="100%" height="100%" viewBox="0 0 21 15" version="1.1" xmlns="http://www.w3.org/2000/svg" xmlns:xlink="http://www.w3.org/1999/xlink" xml:space="preserve" xmlns:serif="http://www.serif.com/" style="fill-rule:evenodd;clip-rule:evenodd;stroke-linejoin:round;stroke-miterlimit:2;">
    <g transform="matrix(1,0,0,1,-1230.16,-1746.68)">
        <g transform="matrix(1,0,0,1,1230.16,1746.44)">
            <path d="M18.904,14.755c-0.234,0 -0.463,-0.075 -0.652,-0.214l-8.252,-6.083l-8.252,6.083c-0.116,0.086 -0.247,0.148 -0.387,0.182c-0.14,0.035 -0.285,0.042 -0.428,0.021c-0.142,-0.022 -0.279,-0.071 -0.402,-0.145c-0.124,-0.074 -0.232,-0.172 -0.317,-0.288c-0.086,-0.116 -0.148,-0.247 -0.183,-0.387c-0.034,-0.139 -0.041,-0.285 -0.02,-0.427c0.043,-0.288 0.199,-0.546 0.433,-0.719l8.904,-6.57c0.189,-0.14 0.417,-0.215 0.652,-0.215c0.235,-0 0.464,0.075 0.652,0.215l8.904,6.57c0.186,0.137 0.324,0.329 0.394,0.549c0.07,0.22 0.069,0.456 -0.003,0.675c-0.072,0.22 -0.212,0.41 -0.399,0.545c-0.188,0.136 -0.413,0.208 -0.644,0.208Z" style="fill:#ff3d00;fill-rule:nonzero;"/>
        </g>
        <g transform="matrix(1,0,0,1,1230.16,1746.44)">
            <path d="M18.904,9.006c-0.234,0 -0.463,-0.075 -0.652,-0.214l-8.252,-6.083l-8.252,6.083c-0.234,0.173 -0.527,0.246 -0.815,0.203c-0.287,-0.043 -0.546,-0.199 -0.719,-0.433c-0.173,-0.234 -0.246,-0.526 -0.203,-0.814c0.043,-0.288 0.199,-0.546 0.433,-0.719l8.904,-6.57c0.189,-0.14 0.417,-0.215 0.652,-0.215c0.235,-0 0.464,0.075 0.652,0.215l8.904,6.57c0.186,0.137 0.324,0.329 0.394,0.549c0.07,0.22 0.069,0.456 -0.003,0.675c-0.072,0.22 -0.212,0.41 -0.399,0.545c-0.188,0.136 -0.413,0.208 -0.644,0.208Z" style="fill:#ff3d00;fill-rule:nonzero;"/>
        </g>
    </g>
</svg>
